<svg width="277" height="115" viewBox="0 0 277 115" fill="none" xmlns="http://www.w3.org/2000/svg">
<rect width="277" height="115" rx="20" fill="white"/>
<path d="M79.1304 47.4054L73.8153 52.6636L64.1685 42.7837L54.6552 52.368L49.1582 46.7545L63.8643 32L79.1304 47.4054Z" fill="#F0B90B"/>
<path d="M49.1182 66.8952L54.3651 61.5687L63.847 71.5082C67.6785 68.2311 70.6288 64.6981 73.9458 61.6738L79.1643 67.0742C74.2556 71.9914 69.1593 77.1389 64.2023 82.1271L49.1182 66.8952Z" fill="#F0B90B"/>
<path d="M114.443 46.4049L115.955 47.4622C116.692 47.9511 117.283 48.6304 117.666 49.432C118.05 50.2307 118.215 51.1203 118.141 52.0071C118.067 52.8939 117.757 53.7409 117.243 54.4657C116.731 55.1877 116.035 55.759 115.228 56.1171C114.261 56.5974 113.21 56.8845 112.135 56.9613C108.702 57.0664 105.254 57.001 101.67 57.001V37.0963C105.621 37.0707 109.603 36.579 113.48 37.6591C117.138 38.671 118.178 42.7781 115.657 45.6432C115.401 45.9302 114.972 46.0667 114.443 46.4049ZM105.624 53.3714C107.94 53.2151 110.131 53.7068 112.32 53.0474C112.789 52.9479 113.207 52.6836 113.497 52.2999C113.787 51.9162 113.932 51.4386 113.903 50.9583C113.917 50.6996 113.878 50.441 113.792 50.1966C113.704 49.9521 113.571 49.7304 113.397 49.5371C113.224 49.3467 113.014 49.1932 112.781 49.0852C112.547 48.9772 112.295 48.9175 112.039 48.909C109.918 48.7669 107.775 48.8692 105.621 48.8692V53.3714H105.624ZM105.572 45.1259C107.446 45.231 109.307 45.4044 111.143 45.0349C111.624 44.9695 112.061 44.7308 112.377 44.3584C112.692 43.9889 112.86 43.5143 112.849 43.0254C112.88 42.5735 112.744 42.1272 112.471 41.7719C112.198 41.4138 111.803 41.1722 111.362 41.0869C109.461 40.6293 107.48 40.6094 105.572 41.0329V45.1259Z" fill="#F0B90B"/>
<path d="M178.492 37.1219H182.073L191.072 48.9459L191.581 48.7782V37.1645H195.566V56.8362H192.067L182.963 44.9013L182.423 45.0491C182.207 46.9478 182.352 48.872 182.329 50.7877C182.304 52.7006 182.329 54.7272 182.329 56.8504H178.501L178.492 37.1219Z" fill="#F0B90B"/>
<path d="M137.399 44.9013V56.8277H133.368V37.156H137.092C140.204 40.9931 142.981 45.1514 146.196 48.9545L146.602 48.7583V37.193H150.47V56.8362H147.085L137.913 44.7677L137.399 44.9013Z" fill="#F0B90B"/>
<path d="M221.926 56.822V37.1503H236.638V40.9562H226.351V45.1486H235.424V48.7413H226.351V53.2492H236.621V56.8078L221.926 56.822Z" fill="#F0B90B"/>
<path d="M174.812 56.9328H170.565L168.658 52.5528H160.157L158.286 56.893H154.162C157.007 50.1795 159.75 43.6393 162.513 37.0792H166.432L174.812 56.9328ZM161.745 48.6503C163.709 48.9089 165.301 49.0596 167.069 48.5366L164.656 42.6843H164.173L161.745 48.6503Z" fill="#F0B90B"/>
<path d="M217.822 39.8477C217.702 40.112 217.557 40.3622 217.393 40.5981C216.767 41.3115 216.116 41.9993 215.426 42.7497C213.575 41.519 211.748 40.2542 209.437 40.7004C208.024 40.9562 206.759 41.7265 205.876 42.8634C204.938 44.114 204.446 45.6489 204.48 47.2178C204.514 48.7868 205.074 50.2961 206.066 51.5069C208.3 54.1019 211.185 54.0564 215.625 51.3335C216.031 51.7115 216.497 52.1009 216.926 52.5187C217.353 52.9366 217.663 53.2975 218.009 53.6756C215.443 57.7486 208.124 58.6297 203.9 55.1507C199.375 51.4301 198.906 44.4949 202.755 40.0239C206.39 35.8031 215.016 36.0163 217.822 39.8477Z" fill="#F0B90B"/>
<path d="M101.639 70.7948V69.0979H178.103C178.148 69.6095 178.191 70.1183 178.253 70.7948H101.639Z" fill="#F0B90B"/>
<path d="M213.472 63.1802C215.911 63.1802 218.182 63.1603 220.47 63.1802C221.999 63.1802 223.239 63.7629 223.881 65.2693C224.523 66.7786 224.077 68.0349 222.954 69.1292C222.804 69.2997 222.667 69.4845 222.548 69.6778C222.733 69.8682 222.932 70.0387 223.142 70.1951C224.529 70.9852 225.174 72.2103 224.893 73.7593C224.612 75.3084 223.52 76.4681 221.889 76.6272C219.154 76.9171 216.4 77.0365 213.467 77.2326L213.472 63.1802ZM215.743 74.99C217.585 74.9076 219.316 74.9076 221.027 74.7229C221.465 74.666 221.869 74.4528 222.161 74.1175C222.454 73.7821 222.616 73.3529 222.616 72.9066C222.616 72.4604 222.457 72.0284 222.161 71.6958C221.869 71.3604 221.465 71.1444 221.027 71.0904C219.259 70.9341 217.472 71.0449 215.724 71.0449L215.743 74.99ZM215.743 68.9132C217.156 68.9757 218.572 68.9643 219.981 68.8734C220.942 68.7625 221.766 68.1685 221.815 67.0344C221.863 65.9003 221.169 65.2352 220.109 65.167C218.68 65.0732 217.233 65.1414 215.741 65.1414V68.9132H215.743Z" fill="#F0B90B"/>
<path d="M127.009 37.1731V56.8846H123.209V37.1731H127.009Z" fill="#F0B90B"/>
<path d="M210.548 77.0025H208.22L206.702 73.5434H200.037L198.411 77.0195H196.214C198.246 72.2785 200.25 67.6711 202.285 62.9501L204.414 62.8364C206.438 67.5148 208.447 72.1535 210.548 77.0025ZM205.81 71.3633L203.32 65.6247C202.41 67.8133 201.694 69.5186 200.926 71.3633H205.81Z" fill="#F0B90B"/>
<path d="M227.505 74.9786L228.539 73.5774C229.759 74.1032 230.85 74.7711 232.055 75.0582C233.258 75.3453 234.494 75.3567 235.554 74.0577L235.628 72.4177C235.267 72.0937 234.864 71.818 234.434 71.5991C233.215 71.1898 231.996 70.8942 230.776 70.4792C228.707 69.7658 227.823 68.501 227.934 66.5568C227.988 65.6644 228.346 64.8173 228.949 64.1608C229.549 63.5042 230.356 63.075 231.234 62.9471C233.42 62.5975 235.517 62.913 237.447 64.5217L236.421 66.0452C234.42 65.2949 232.487 63.7657 230.353 65.7752V67.7677C231.379 68.177 232.416 68.5863 233.471 68.9671C234.037 69.1718 234.648 69.2343 235.21 69.4418C237.243 70.195 238.201 71.6474 237.965 73.6342C237.837 74.5182 237.419 75.3311 236.779 75.9479C236.14 76.5646 235.316 76.9483 234.437 77.0393C231.95 77.3264 229.594 76.9626 227.505 74.9786Z" fill="#F0B90B"/>
<path d="M44.4828 51.9702L49.7042 57.1943L44.2839 62.3872L39 57.0238L44.4828 51.9702Z" fill="#F0B90B"/>
<path d="M64.4361 51.7343L69.4385 56.7708L63.9614 62.1229L59.084 57.1546L64.4361 51.7343Z" fill="#F0B90B"/>
<path d="M83.7575 62.2451L78.7266 57.1744L84.0445 51.8479L88.9788 56.984L83.7575 62.2451Z" fill="#F0B90B"/>
<path d="M184.185 63.2996H186.363V74.9418H193.579V76.9456H184.183V63.2996H184.185Z" fill="#F0B90B"/>
</svg>
