<svg width="221" height="92" viewBox="0 0 221 92" fill="none" xmlns="http://www.w3.org/2000/svg">
<rect x="0.486328" y="0.00012207" width="220" height="92" rx="16" fill="white"/>
<g clip-path="url(#clip0_2280_50401)">
<path d="M56.5995 52.8233C56.1918 52.8233 55.9036 52.7389 55.7349 52.5703C55.5802 52.4016 55.5029 52.1344 55.5029 51.7689V39.5596C55.5029 39.1939 55.5872 38.9268 55.756 38.7582C55.9247 38.5754 56.2058 38.484 56.5995 38.484H61.7658C63.7339 38.484 65.1819 38.8988 66.1098 39.7282C67.0376 40.5576 67.5015 41.7947 67.5015 43.4394C67.5015 45.0702 67.0376 46.3003 66.1098 47.1297C65.196 47.9452 63.748 48.3528 61.7658 48.3528H59.7625V51.7689C59.7625 52.1344 59.6782 52.4016 59.5095 52.5703C59.3408 52.7389 59.0526 52.8233 58.6449 52.8233H56.5995ZM61.4285 45.2952C62.0049 45.2952 62.4477 45.1405 62.757 44.8313C63.0802 44.522 63.2419 44.0581 63.2419 43.4396C63.2419 42.8069 63.0802 42.3359 62.757 42.0266C62.4477 41.7174 62.0049 41.5627 61.4285 41.5627H59.7625V45.2952H61.4285ZM72.4815 53.1396C71.1601 53.1396 70.0987 52.7178 69.2973 51.8744C68.5101 51.0168 68.1165 49.8149 68.1165 48.2684C68.1165 47.0876 68.3836 46.0543 68.9177 45.1686C69.4661 44.2829 70.2323 43.6012 71.2163 43.1232C72.2145 42.6312 73.3601 42.3852 74.6535 42.3852C75.722 42.3852 76.6639 42.5046 77.4792 42.7437C78.3086 42.9685 79.0677 43.2989 79.7566 43.7347V52.1696C79.7566 52.4367 79.7074 52.6124 79.6089 52.6967C79.5105 52.7812 79.3137 52.8233 79.0186 52.8233H76.8676C76.713 52.8233 76.5935 52.8022 76.5092 52.7599C76.4248 52.7038 76.3546 52.6194 76.2984 52.5069L76.0241 51.8744C75.6165 52.3101 75.1245 52.6265 74.5481 52.8233C73.9858 53.0342 73.2969 53.1396 72.4815 53.1396ZM74.0631 50.2717C74.6113 50.2717 75.0401 50.1381 75.3493 49.8711C75.6586 49.604 75.8132 49.2244 75.8132 48.7323V45.4428C75.5462 45.3162 75.2088 45.253 74.8011 45.253C74.056 45.253 73.4585 45.513 73.0087 46.0332C72.5729 46.5533 72.355 47.2844 72.355 48.2263C72.355 49.5899 72.9243 50.2717 74.0631 50.2717ZM82.6912 52.8233C82.2834 52.8233 81.9952 52.7389 81.8266 52.5703C81.6579 52.4016 81.5736 52.1344 81.5736 51.7689V43.3551C81.5736 43.1021 81.6157 42.9334 81.7 42.8491C81.7984 42.7505 81.9952 42.7014 82.2905 42.7014H84.4625C84.6311 42.7014 84.7577 42.7296 84.842 42.7858C84.9404 42.828 84.9966 42.9123 85.0107 43.0389L85.1161 43.6715C85.5098 43.2778 86.023 42.9685 86.6555 42.7437C87.3022 42.5046 88.0191 42.3852 88.8064 42.3852C89.9451 42.3852 90.8659 42.7085 91.5688 43.3551C92.2718 43.9878 92.6232 44.9297 92.6232 46.1808V51.7689C92.6232 52.1344 92.5389 52.4016 92.3701 52.5703C92.2155 52.7389 91.9343 52.8233 91.5266 52.8233H89.4812C89.0735 52.8233 88.7784 52.7389 88.5955 52.5703C88.4268 52.4016 88.3425 52.1344 88.3425 51.7689V46.4549C88.3425 46.0332 88.2511 45.731 88.0684 45.5482C87.8856 45.3655 87.5974 45.2741 87.2038 45.2741C86.7821 45.2741 86.4446 45.3866 86.1916 45.6114C85.9526 45.8364 85.8332 46.1457 85.8332 46.5394V51.7689C85.8332 52.1344 85.7488 52.4016 85.5802 52.5703C85.4255 52.7389 85.1443 52.8233 84.7366 52.8233H82.6912ZM100.077 53.1396C98.1087 53.1396 96.5905 52.6826 95.522 51.7689C94.4536 50.8552 93.9194 49.5267 93.9194 47.7834C93.9194 46.7151 94.1654 45.7732 94.6574 44.9579C95.1495 44.1424 95.8594 43.5098 96.7872 43.0599C97.7291 42.6101 98.8398 42.3852 100.119 42.3852C101.089 42.3852 101.904 42.4766 102.565 42.6593C103.24 42.8421 103.837 43.1232 104.358 43.5028C104.512 43.6013 104.589 43.7277 104.589 43.8824C104.589 43.9949 104.533 44.1424 104.421 44.3252L103.556 45.8223C103.458 46.0192 103.338 46.1176 103.198 46.1176C103.113 46.1176 102.98 46.0614 102.797 45.9489C102.417 45.71 102.059 45.5342 101.722 45.4218C101.398 45.3093 100.991 45.253 100.499 45.253C99.7956 45.253 99.2264 45.478 98.7905 45.9278C98.3688 46.3776 98.1579 46.9962 98.1579 47.7834C98.1579 48.5848 98.3757 49.2033 98.8116 49.6391C99.2474 50.0608 99.8449 50.2717 100.604 50.2717C101.054 50.2717 101.462 50.2085 101.827 50.0819C102.193 49.9554 102.565 49.7797 102.945 49.5548C103.142 49.4423 103.282 49.386 103.366 49.386C103.493 49.386 103.605 49.4844 103.704 49.6813L104.653 51.305C104.723 51.4455 104.758 51.558 104.758 51.6423C104.758 51.7689 104.674 51.8884 104.505 52.0009C103.915 52.3805 103.268 52.6616 102.565 52.8444C101.876 53.0412 101.047 53.1396 100.077 53.1396ZM110.105 53.1396C108.783 53.1396 107.722 52.7178 106.921 51.8744C106.133 51.0168 105.74 49.8149 105.74 48.2684C105.74 47.0876 106.007 46.0543 106.541 45.1686C107.089 44.2829 107.855 43.6012 108.839 43.1232C109.838 42.6312 110.983 42.3852 112.277 42.3852C113.345 42.3852 114.287 42.5046 115.102 42.7437C115.932 42.9685 116.691 43.2989 117.38 43.7347V52.1696C117.38 52.4367 117.331 52.6124 117.232 52.6967C117.134 52.7812 116.937 52.8233 116.642 52.8233H114.491C114.336 52.8233 114.217 52.8022 114.132 52.7599C114.048 52.7038 113.978 52.6194 113.922 52.5069L113.647 51.8744C113.24 52.3101 112.748 52.6265 112.171 52.8233C111.609 53.0342 110.92 53.1396 110.105 53.1396ZM111.686 50.2717C112.235 50.2717 112.663 50.1381 112.973 49.8711C113.282 49.604 113.437 49.2244 113.437 48.7323V45.4428C113.169 45.3162 112.832 45.253 112.424 45.253C111.679 45.253 111.082 45.513 110.632 46.0332C110.196 46.5533 109.978 47.2844 109.978 48.2263C109.978 49.5899 110.548 50.2717 111.686 50.2717ZM130.626 52.0219C130.724 52.1344 130.774 52.261 130.774 52.4016C130.774 52.528 130.731 52.6335 130.647 52.7178C130.563 52.7881 130.45 52.8233 130.31 52.8233H127.041C126.844 52.8233 126.697 52.8092 126.598 52.7812C126.514 52.7389 126.423 52.6616 126.324 52.5492L123.456 48.648V51.7689C123.456 52.1344 123.372 52.4016 123.203 52.5703C123.035 52.7389 122.746 52.8233 122.339 52.8233H120.293C119.886 52.8233 119.597 52.7389 119.429 52.5703C119.274 52.4016 119.197 52.1344 119.197 51.7689V39.5596C119.197 39.1939 119.281 38.9268 119.45 38.7582C119.619 38.5754 119.9 38.484 120.293 38.484H122.339C122.746 38.484 123.035 38.5754 123.203 38.7582C123.372 38.9268 123.456 39.1939 123.456 39.5594V46.6237L126.24 42.9967C126.324 42.8842 126.416 42.8069 126.514 42.7648C126.612 42.7225 126.76 42.7014 126.957 42.7014H130.225C130.366 42.7014 130.471 42.7437 130.542 42.828C130.626 42.8983 130.668 42.9967 130.668 43.1232C130.668 43.2638 130.619 43.3903 130.521 43.5028L126.915 47.6359L130.626 52.0219ZM137.473 53.1396C136.292 53.1396 135.238 52.9428 134.31 52.5492C133.396 52.1555 132.672 51.565 132.138 50.7779C131.604 49.9906 131.337 49.0276 131.337 47.8889C131.337 46.1035 131.843 44.7399 132.855 43.798C133.867 42.856 135.322 42.3852 137.22 42.3852C139.076 42.3852 140.482 42.8491 141.437 43.7769C142.407 44.6907 142.892 45.963 142.892 47.5936C142.892 48.2966 142.583 48.648 141.965 48.648H135.343C135.343 49.2525 135.568 49.7165 136.018 50.0397C136.482 50.3631 137.178 50.5247 138.106 50.5247C138.682 50.5247 139.16 50.4756 139.54 50.3772C139.933 50.2647 140.327 50.1031 140.72 49.8922C140.889 49.8219 141.002 49.7867 141.058 49.7867C141.184 49.7867 141.29 49.8711 141.374 50.0397L142.091 51.3893C142.161 51.53 142.197 51.6354 142.197 51.7057C142.197 51.8321 142.112 51.9517 141.943 52.0641C141.367 52.4437 140.713 52.7178 139.982 52.8865C139.251 53.0553 138.415 53.1396 137.473 53.1396ZM139.097 46.5604C139.097 46.0262 138.942 45.6114 138.633 45.3162C138.324 45.0211 137.86 44.8734 137.241 44.8734C136.622 44.8734 136.152 45.0281 135.828 45.3373C135.505 45.6326 135.343 46.0403 135.343 46.5604H139.097ZM150.12 53.1396C148.939 53.1396 147.822 53.0201 146.767 52.7812C145.713 52.528 144.862 52.1766 144.216 51.7268C143.977 51.5721 143.857 51.4104 143.857 51.2418C143.857 51.1293 143.899 51.0098 143.984 50.8833L145.017 49.2385C145.129 49.0698 145.242 48.9855 145.354 48.9855C145.425 48.9855 145.544 49.0346 145.713 49.133C146.233 49.4283 146.823 49.6672 147.484 49.8499C148.145 50.0328 148.799 50.1242 149.445 50.1242C150.106 50.1242 150.591 50.0258 150.9 49.8289C151.224 49.6321 151.385 49.3158 151.385 48.88C151.385 48.4582 151.21 48.1279 150.858 47.8889C150.521 47.6499 149.881 47.3477 148.939 46.9822C147.519 46.448 146.409 45.8505 145.607 45.1897C144.82 44.515 144.426 43.6012 144.426 42.4484C144.426 41.0567 144.926 39.9953 145.924 39.2643C146.922 38.5331 148.25 38.1677 149.909 38.1677C151.062 38.1677 152.046 38.2731 152.861 38.484C153.691 38.6809 154.394 38.9902 154.97 39.4118C155.209 39.5946 155.329 39.7633 155.329 39.918C155.329 40.0164 155.286 40.1287 155.202 40.2553L154.169 41.9002C154.042 42.0688 153.93 42.1532 153.831 42.1532C153.761 42.1532 153.642 42.1039 153.473 42.0056C152.657 41.4713 151.688 41.2043 150.563 41.2043C149.958 41.2043 149.494 41.3027 149.171 41.4995C148.848 41.6963 148.686 42.0196 148.686 42.4695C148.686 42.7787 148.771 43.0319 148.939 43.2287C149.108 43.4255 149.333 43.6012 149.614 43.7558C149.909 43.8963 150.359 44.0792 150.963 44.3041L151.364 44.4517C152.404 44.8595 153.22 45.253 153.81 45.6326C154.415 45.998 154.872 46.4549 155.181 47.0033C155.49 47.5374 155.645 48.2122 155.645 49.0276C155.645 50.2788 155.174 51.277 154.232 52.0219C153.304 52.7671 151.934 53.1396 150.12 53.1396ZM160.125 52.8233C159.915 52.8233 159.753 52.7881 159.64 52.7178C159.528 52.6476 159.443 52.5069 159.387 52.296L156.667 43.1864C156.639 43.1021 156.625 43.0389 156.625 42.9967C156.625 42.7999 156.765 42.7014 157.047 42.7014H159.83C160.013 42.7014 160.146 42.7366 160.231 42.8068C160.315 42.8632 160.372 42.9614 160.399 43.1021L161.537 47.8889L162.972 44.0299C163.043 43.8613 163.113 43.7488 163.182 43.6926C163.267 43.6222 163.408 43.5872 163.605 43.5872H164.933C165.13 43.5872 165.264 43.6222 165.334 43.6926C165.418 43.7487 165.495 43.8613 165.566 44.0299L166.978 47.8889L168.139 43.1021C168.18 42.9616 168.236 42.8632 168.307 42.8069C168.377 42.7366 168.504 42.7015 168.686 42.7015H171.492C171.772 42.7015 171.913 42.7999 171.913 42.9967C171.913 43.0389 171.899 43.1021 171.871 43.1864L169.13 52.296C169.074 52.5069 168.989 52.6476 168.877 52.7178C168.778 52.7881 168.623 52.8233 168.413 52.8233H166.346C166.149 52.8233 166.001 52.7881 165.903 52.7178C165.804 52.6335 165.721 52.493 165.65 52.296L164.258 48.4793L162.866 52.296C162.81 52.493 162.725 52.6335 162.613 52.7178C162.515 52.7881 162.368 52.8233 162.171 52.8233H160.125ZM177.258 53.1396C175.936 53.1396 174.876 52.7178 174.074 51.8744C173.287 51.0168 172.893 49.8149 172.893 48.2684C172.893 47.0876 173.16 46.0543 173.695 45.1686C174.242 44.2829 175.009 43.6012 175.992 43.1232C176.991 42.6312 178.137 42.3852 179.43 42.3852C180.499 42.3852 181.44 42.5046 182.256 42.7437C183.085 42.9685 183.845 43.2989 184.533 43.7347V52.1696C184.533 52.4367 184.484 52.6124 184.385 52.6967C184.287 52.7812 184.091 52.8233 183.795 52.8233H181.644C181.49 52.8233 181.37 52.8022 181.286 52.7599C181.201 52.7038 181.131 52.6194 181.075 52.5069L180.801 51.8744C180.393 52.3101 179.901 52.6265 179.325 52.8233C178.762 53.0342 178.074 53.1396 177.258 53.1396ZM178.84 50.2717C179.388 50.2717 179.817 50.1381 180.127 49.8711C180.436 49.604 180.59 49.2244 180.59 48.7323V45.4428C180.322 45.3162 179.986 45.253 179.578 45.253C178.832 45.253 178.235 45.513 177.785 46.0332C177.35 46.5533 177.131 47.2844 177.131 48.2263C177.131 49.5899 177.702 50.2717 178.84 50.2717ZM187.446 57.0829C187.039 57.0829 186.751 56.9986 186.582 56.8299C186.427 56.6611 186.35 56.394 186.35 56.0285V43.9456C186.983 43.4958 187.778 43.1232 188.733 42.828C189.689 42.5328 190.687 42.3852 191.727 42.3852C195.973 42.3852 198.096 44.1847 198.096 47.7834C198.096 49.4142 197.646 50.7145 196.746 51.6846C195.846 52.6546 194.575 53.1396 192.93 53.1396C192.466 53.1396 192.016 53.0833 191.579 52.9708C191.158 52.8585 190.806 52.7038 190.525 52.5069V56.0285C190.525 56.394 190.441 56.6611 190.272 56.8299C190.104 56.9986 189.815 57.0829 189.407 57.0829H187.446ZM192.023 50.2928C192.627 50.2928 193.078 50.0679 193.372 49.618C193.681 49.1541 193.836 48.5355 193.836 47.7624C193.836 46.8486 193.654 46.2089 193.288 45.8434C192.937 45.4639 192.388 45.2741 191.643 45.2741C191.165 45.2741 190.785 45.3373 190.505 45.4639V48.8168C190.505 49.2948 190.638 49.6603 190.904 49.9133C191.173 50.1663 191.545 50.2928 192.023 50.2928Z" fill="black"/>
<path fill-rule="evenodd" clip-rule="evenodd" d="M36.1468 59.0511C32.152 59.0481 28.9339 58.0895 26.6856 56.3677C24.4102 54.6253 23.2031 52.1525 23.2031 49.3544C23.2031 46.6584 24.4075 44.7144 25.7703 43.4003C26.8384 42.3705 28.0169 41.711 28.8376 41.3316C28.652 40.762 28.4205 40.0165 28.2133 39.2463C27.9362 38.2159 27.6643 37.0067 27.6643 36.1208C27.6643 35.0721 27.8928 34.0188 28.5093 33.2005C29.1607 32.3359 30.1413 31.8727 31.3209 31.8727C32.2429 31.8727 33.0256 32.2147 33.6383 32.8046C34.224 33.3684 34.614 34.1174 34.8831 34.8981C35.3561 36.2698 35.5403 37.9932 35.5919 39.7132H36.7218C36.7735 37.9932 36.9576 36.2698 37.4307 34.8981C37.6998 34.1174 38.0896 33.3685 38.6754 32.8046C39.2882 32.2148 40.0708 31.8727 40.9927 31.8727C42.1725 31.8727 43.153 32.3359 43.8044 33.2005C44.4209 34.0188 44.6495 35.0721 44.6495 36.1208C44.6495 37.0067 44.3775 38.2159 44.1004 39.2463C43.8932 40.0165 43.6616 40.762 43.4761 41.3316C44.2967 41.711 45.4754 42.3705 46.5433 43.4004C47.9062 44.7144 49.1105 46.6584 49.1105 49.3544C49.1105 52.1525 47.9036 54.6253 45.6281 56.3677C43.3797 58.0895 40.1617 59.0481 36.1669 59.0511H36.1468Z" fill="#633001"/>
<path d="M31.3211 32.87C29.5934 32.87 28.7981 34.1722 28.7981 35.973C28.7981 37.4044 29.7222 40.271 30.1012 41.387C30.1866 41.6381 30.0525 41.913 29.8081 42.0103C28.4234 42.5619 24.3369 44.5815 24.3369 49.2067C24.3369 54.0788 28.4898 57.7524 36.148 57.7583L36.1571 57.7582L36.1662 57.7583C43.8244 57.7524 47.9772 54.0788 47.9772 49.2067C47.9772 44.5815 43.8907 42.5619 42.506 42.0103C42.2616 41.9131 42.1276 41.6381 42.2129 41.387C42.5921 40.2711 43.5162 37.4044 43.5162 35.973C43.5162 34.1721 42.7208 32.87 40.993 32.87C38.506 32.87 37.886 36.4289 37.8418 40.2487C37.8389 40.5036 37.6347 40.7105 37.3824 40.7105H34.9319C34.6794 40.7105 34.4754 40.5036 34.4724 40.2487C34.4282 36.4289 33.8083 32.87 31.3211 32.87Z" fill="#D1884F"/>
<path d="M36.1662 56.1975C30.5394 56.1975 24.3466 53.1548 24.3369 49.2159V49.2343C24.3369 54.1104 28.4963 57.7859 36.1662 57.7859C43.8361 57.7859 47.9955 54.1104 47.9955 49.2343V49.2159C47.9858 53.1548 41.793 56.1975 36.1662 56.1975Z" fill="#FEDC90"/>
<path d="M33.0398 48.0063C33.0398 49.3362 32.4177 50.0288 31.6503 50.0288C30.8828 50.0288 30.2607 49.3362 30.2607 48.0063C30.2607 46.6765 30.8828 45.9839 31.6503 45.9839C32.4177 45.9839 33.0398 46.6765 33.0398 48.0063ZM42.0717 48.0063C42.0717 49.3362 41.4496 50.0288 40.6822 50.0288C39.9148 50.0288 39.2927 49.3362 39.2927 48.0063C39.2927 46.6765 39.9148 45.9839 40.6822 45.9839C41.4496 45.9839 42.0717 46.6765 42.0717 48.0063Z" fill="#633001"/>
</g>
<defs>
<clipPath id="clip0_2280_50401">
<rect width="175.299" height="27.2322" fill="white" transform="translate(22.7969 31.8727)"/>
</clipPath>
</defs>
</svg>
