<svg width="220" height="92" viewBox="0 0 220 92" fill="none" xmlns="http://www.w3.org/2000/svg">
<rect width="220" height="92" rx="16" fill="white"/>
<path d="M35.9999 75.7225C35.4933 75.7225 35.1999 75.3225 35.1999 74.9225V35.1359C35.0933 33.4292 35.3066 27.2692 40.0799 22.2825C41.5733 20.6825 45.7599 17.1092 52.1599 17.0025C58.3466 16.8959 62.6399 20.2025 64.1333 21.5892C65.7333 23.0825 69.4132 27.1625 69.6266 33.6692C69.8133 40.2559 66.1333 44.5492 64.6399 46.1225C60.2399 50.6025 54.8799 51.1092 52.7733 51.2159C52.3733 51.2159 51.9733 50.8159 51.9733 50.4159C51.9733 49.9092 52.2666 49.6159 52.7733 49.6159C54.6666 49.6159 59.5466 49.0292 63.5466 45.0292C64.6399 43.9359 68.2399 39.8559 68.1333 33.7492C68.0266 27.7759 64.3466 23.8825 63.1466 22.8692C62.0533 21.8825 58.2666 18.7892 52.5866 18.7892C52.4799 18.7892 52.3999 18.7892 52.2933 18.7892C46.5066 18.8959 42.7199 22.1759 41.3333 23.5892C36.9333 27.9892 36.8533 33.5625 36.8533 35.1625V74.9492C36.7999 75.4025 36.4799 75.7225 35.9999 75.7225Z" fill="#8246FA"/>
<path d="M52.2398 40.0186C49.0398 40.0186 46.4531 37.432 46.4531 34.232C46.4531 31.032 49.0398 28.4453 52.2398 28.4453C55.4398 28.4453 58.0265 31.032 58.0265 34.232C58.0265 37.432 55.4398 40.0186 52.2398 40.0186ZM52.2398 29.9386C49.9465 29.9386 48.0531 31.832 48.0531 34.1253C48.0531 36.4186 49.9465 38.312 52.2398 38.312C54.5331 38.312 56.4265 36.4186 56.4265 34.1253C56.4265 31.832 54.5331 29.9386 52.2398 29.9386Z" fill="#8246FA"/>
<path d="M41.3869 61.7525C40.8802 61.7525 40.5869 61.3525 40.5869 60.9525V35.1125C40.5869 34.6058 40.9869 34.3125 41.3869 34.3125C41.7869 34.3125 42.1869 34.7125 42.1869 35.1125V60.9525C42.1602 61.3525 41.7869 61.7525 41.3869 61.7525Z" fill="#8246FA"/>
<path d="M47.1468 69.8288C46.6401 69.8288 46.3468 69.4288 46.3468 69.0288V55.2688C46.3468 54.7621 46.7468 54.4688 47.1468 54.4688C47.5468 54.4688 47.9468 54.8688 47.9468 55.2688V69.0288C48.0535 69.4288 47.6535 69.8288 47.1468 69.8288Z" fill="#8246FA"/>
<path d="M30.8 63.3498C30.2933 63.3498 30 62.9498 30 62.5498V45.0031C30 44.4965 30.4 44.2031 30.8 44.2031C31.2 44.2031 31.6 44.6031 31.6 45.0031V62.5498C31.6 63.0565 31.3067 63.3498 30.8 63.3498Z" fill="#8246FA"/>
<path d="M52.2398 45.8053C45.7598 45.8053 40.5598 40.5253 40.5598 34.1253C40.5598 27.752 45.7331 22.4453 52.2398 22.4453C58.7465 22.4453 63.9198 27.7253 63.9198 34.1253C63.9198 40.5253 58.6398 45.8053 52.2398 45.8053ZM52.2398 24.072C46.6665 24.072 42.1598 28.552 42.1598 34.152C42.1598 39.752 46.6398 44.232 52.2398 44.232C57.8398 44.232 62.3198 39.752 62.3198 34.152C62.3198 28.552 57.7332 24.072 52.2398 24.072Z" fill="#8246FA"/>
<path d="M135.92 33.0312H132.533C132.347 33.0312 132.24 33.1379 132.133 33.2179L126.053 41.1113C125.653 41.6179 125.36 42.0979 125.067 42.4979C124.88 42.0979 124.48 41.5913 124.08 41.1113L117.893 33.2446C117.787 33.1379 117.707 33.0579 117.493 33.0579H114.213C114.027 33.0579 113.813 33.1646 113.813 33.3512C113.707 33.5379 113.707 33.7513 113.92 33.8579L123.2 46.0179V56.8979C123.2 57.1913 123.387 57.4046 123.707 57.4046H126.587C126.88 57.4046 127.093 57.2179 127.093 56.8979V45.9113L136.373 33.7512C136.48 33.5646 136.48 33.3513 136.48 33.2446C136.32 33.2446 136.107 33.0312 135.92 33.0312Z" fill="#1D1D1B"/>
<path d="M162.853 33.0312H142.613C142.32 33.0312 142.107 33.2179 142.107 33.5379V36.0179C142.107 36.3112 142.293 36.5246 142.613 36.5246H150.8V56.8712C150.8 57.1646 150.987 57.3779 151.307 57.3779H154.187C154.48 57.3779 154.693 57.1912 154.693 56.8712V36.6313H162.88C163.173 36.6313 163.387 36.4446 163.387 36.1246V33.6446C163.333 33.3246 163.147 33.0312 162.853 33.0312Z" fill="#1D1D1B"/>
<path d="M97.12 33.0312H87.5467C87.2534 33.0312 87.04 33.2179 87.04 33.5379V56.8712C87.04 57.1646 87.2267 57.3779 87.5467 57.3779H90.4267C90.72 57.3779 90.9334 57.1912 90.9334 56.8712V52.8712V51.4846V47.9912V47.4046V36.4446H97.4134C101.013 36.4446 103.6 38.8446 103.6 42.2312C103.6 45.6179 101.013 48.0179 97.3067 48.0179H96.32C96.32 48.0179 96.0267 48.0179 95.92 48.2046C95.8134 48.3112 95.8134 48.4979 95.8134 48.4979C95.8134 49.2979 95.8134 50.2046 95.8134 50.9779C95.8134 50.9779 95.8134 51.1646 95.92 51.3779C96.0267 51.4846 96.2134 51.4846 96.32 51.4846C96.5067 51.4846 96.8267 51.4846 97.0134 51.4846C97.52 51.4846 102.507 51.7779 105.493 47.9912C107.387 45.5912 107.493 42.8179 107.493 42.2046C107.68 36.8179 103.413 33.0312 97.12 33.0312Z" fill="#1D1D1B"/>
<path d="M175.2 42.7112V33.5379C175.2 33.2446 175.013 33.0312 174.693 33.0312H171.813C171.52 33.0312 171.307 33.2179 171.307 33.5379V56.8712C171.307 57.1646 171.493 57.3779 171.813 57.3779H174.693C174.987 57.3779 175.2 57.1912 175.2 56.8712V46.2046" fill="#1D1D1B"/>
<path d="M191.173 33.0312H188.293C188 33.0312 187.787 33.2179 187.787 33.5379V42.7112H179.92C179.733 42.7112 179.52 42.8979 179.52 43.1112V45.8046C179.52 45.9912 179.707 46.2046 179.92 46.2046H187.787V56.9779C187.787 57.2712 187.973 57.4846 188.293 57.4846H191.173C191.467 57.4846 191.68 57.2979 191.68 56.9779V33.5379C191.653 33.3246 191.467 33.0312 191.173 33.0312Z" fill="#1D1D1B"/>
</svg>
