<svg width="220" height="92" viewBox="0 0 220 92" fill="none" xmlns="http://www.w3.org/2000/svg">
<rect width="220" height="92" rx="16" fill="white"/>
<path d="M62.8034 50.4669C62.8034 51.0921 62.9163 51.6218 63.1421 52.0559C63.3678 52.4901 63.6631 52.8461 64.0278 53.124C64.4098 53.3845 64.8527 53.5842 65.3563 53.7231C65.8599 53.8447 66.3809 53.9054 66.9192 53.9054C67.2839 53.9054 67.6747 53.8794 68.0915 53.8273C68.5083 53.7578 68.899 53.6363 69.2637 53.4626C69.6284 53.2889 69.9323 53.0545 70.1754 52.7593C70.4185 52.4467 70.5401 52.0559 70.5401 51.587C70.5401 51.0834 70.3751 50.6753 70.0452 50.3627C69.7326 50.0501 69.3158 49.7896 68.7948 49.5812C68.2738 49.3728 67.6834 49.1905 67.0234 49.0342C66.3635 48.8779 65.6949 48.7042 65.0176 48.5132C64.323 48.3396 63.6457 48.1312 62.9858 47.888C62.3259 47.6275 61.7354 47.2976 61.2144 46.8982C60.6934 46.4987 60.268 46.0038 59.938 45.4133C59.6254 44.8055 59.4691 44.0761 59.4691 43.2252C59.4691 42.2701 59.6688 41.4452 60.0683 40.7505C60.485 40.0385 61.0234 39.448 61.6833 38.9791C62.3432 38.5103 63.09 38.1629 63.9236 37.9372C64.7571 37.7114 65.5907 37.5985 66.4243 37.5985C67.3968 37.5985 68.3259 37.7114 69.2116 37.9372C70.1146 38.1456 70.9135 38.4929 71.6081 38.9791C72.3028 39.4654 72.8498 40.0906 73.2492 40.8547C73.666 41.6015 73.8744 42.5132 73.8744 43.5899H69.9149C69.8802 43.0342 69.7586 42.574 69.5502 42.2093C69.3592 41.8446 69.0987 41.558 68.7687 41.3496C68.4388 41.1412 68.0567 40.9936 67.6226 40.9068C67.2058 40.82 66.7456 40.7766 66.242 40.7766C65.912 40.7766 65.582 40.8113 65.2521 40.8808C64.9221 40.9502 64.6182 41.0718 64.3404 41.2454C64.0799 41.4191 63.8628 41.6362 63.6891 41.8967C63.5155 42.1572 63.4286 42.4871 63.4286 42.8866C63.4286 43.2512 63.4981 43.5465 63.637 43.7722C63.776 43.998 64.0451 44.2064 64.4446 44.3974C64.8613 44.5884 65.4257 44.7795 66.1378 44.9705C66.8671 45.1615 67.8136 45.4047 68.9771 45.6999C69.3245 45.7694 69.802 45.8996 70.4099 46.0906C71.035 46.2643 71.6515 46.5508 72.2594 46.9503C72.8672 47.3497 73.3882 47.888 73.8223 48.5653C74.2738 49.2252 74.4996 50.0762 74.4996 51.1182C74.4996 51.9691 74.3346 52.7593 74.0047 53.4887C73.6747 54.218 73.1798 54.8519 72.5199 55.3903C71.8773 55.9112 71.0698 56.3193 70.0973 56.6146C69.1421 56.9098 68.0307 57.0574 66.7629 57.0574C65.7383 57.0574 64.7398 56.9272 63.7673 56.6667C62.8121 56.4235 61.9612 56.0328 61.2144 55.4945C60.485 54.9561 59.9033 54.2701 59.4691 53.4366C59.035 52.603 58.8266 51.6131 58.8439 50.4669H62.8034ZM81.0488 41.4799H75.4742V38.0414H90.7131V41.4799H85.1385V56.6406H81.0488V41.4799ZM95.1553 49.451H99.9745L97.63 42.6261H97.5779L95.1553 49.451ZM95.5461 38.0414H99.74L106.695 56.6406H102.449L101.042 52.4988H94.0873L92.6285 56.6406H88.5127L95.5461 38.0414ZM108.299 38.0414H112.389V45.752L119.657 38.0414H124.762L117.495 45.3873L125.466 56.6406H120.334L114.733 48.2788L112.389 50.6493V56.6406H108.299V38.0414ZM127.098 38.0414H141.009V41.4799H131.188V45.4654H140.201V48.6435H131.188V53.2021H141.217V56.6406H127.098V38.0414ZM155.33 53.2021H158.977C159.567 53.2021 160.14 53.1066 160.696 52.9156C161.251 52.7245 161.746 52.4119 162.181 51.9778C162.615 51.5263 162.962 50.9445 163.223 50.2325C163.483 49.5205 163.613 48.6521 163.613 47.6275C163.613 46.6898 163.518 45.8475 163.327 45.1008C163.153 44.3366 162.858 43.6854 162.441 43.147C162.024 42.6087 161.469 42.2006 160.774 41.9227C160.097 41.6275 159.254 41.4799 158.247 41.4799H155.33V53.2021ZM151.24 38.0414H159.263C160.461 38.0414 161.573 38.2324 162.597 38.6145C163.639 38.9965 164.534 39.5696 165.28 40.3337C166.045 41.0978 166.635 42.053 167.052 43.1991C167.486 44.3453 167.703 45.6912 167.703 47.2368C167.703 48.5914 167.529 49.8417 167.182 50.9879C166.835 52.1341 166.305 53.124 165.593 53.9575C164.898 54.7911 164.021 55.451 162.962 55.9373C161.92 56.4062 160.687 56.6406 159.263 56.6406H151.24V38.0414ZM175.237 49.451H180.056L177.712 42.6261H177.659L175.237 49.451ZM175.628 38.0414H179.822L186.777 56.6406H182.531L181.124 52.4988H174.169L172.71 56.6406H168.594L175.628 38.0414ZM191.663 47.4191C191.663 48.2006 191.75 48.9647 191.923 49.7115C192.114 50.4409 192.41 51.1008 192.809 51.6912C193.208 52.2817 193.729 52.7593 194.372 53.124C195.014 53.4713 195.796 53.6449 196.716 53.6449C197.637 53.6449 198.418 53.4713 199.061 53.124C199.703 52.7593 200.224 52.2817 200.624 51.6912C201.023 51.1008 201.31 50.4409 201.483 49.7115C201.674 48.9647 201.77 48.2006 201.77 47.4191C201.77 46.6029 201.674 45.8128 201.483 45.0487C201.31 44.2845 201.023 43.6073 200.624 43.0168C200.224 42.409 199.703 41.9314 199.061 41.5841C198.418 41.2194 197.637 41.037 196.716 41.037C195.796 41.037 195.014 41.2194 194.372 41.5841C193.729 41.9314 193.208 42.409 192.809 43.0168C192.41 43.6073 192.114 44.2845 191.923 45.0487C191.75 45.8128 191.663 46.6029 191.663 47.4191ZM187.573 47.4191C187.573 46.0298 187.781 44.7447 188.198 43.5638C188.615 42.3656 189.214 41.3236 189.996 40.4379C190.777 39.5522 191.732 38.8576 192.861 38.354C194.007 37.8503 195.292 37.5985 196.716 37.5985C198.158 37.5985 199.443 37.8503 200.572 38.354C201.7 38.8576 202.656 39.5522 203.437 40.4379C204.219 41.3236 204.818 42.3656 205.234 43.5638C205.651 44.7447 205.86 46.0298 205.86 47.4191C205.86 48.7737 205.651 50.0414 205.234 51.2224C204.818 52.3859 204.219 53.4018 203.437 54.2701C202.656 55.1384 201.7 55.8244 200.572 56.328C199.443 56.8143 198.158 57.0574 196.716 57.0574C195.292 57.0574 194.007 56.8143 192.861 56.328C191.732 55.8244 190.777 55.1384 189.996 54.2701C189.214 53.4018 188.615 52.3859 188.198 51.2224C187.781 50.0414 187.573 48.7737 187.573 47.4191Z" fill="black"/>
<path fill-rule="evenodd" clip-rule="evenodd" d="M21.8295 48.9746L22.3885 52.8586L19.5925 53.4134L17.3555 52.8586L14 47.3103L15.1185 37.3227L19.033 32.3292L24.066 31.7744L29.099 29L35.8105 32.3292L34.1325 33.9935C38.9791 34.7332 42.1483 35.2885 43.6394 35.6584C45.8764 36.2132 49.7914 38.9876 50.3504 39.5424C50.9099 40.0971 50.6431 42.6475 50.3504 44.5359C50.155 45.7948 49.7823 46.7194 49.2319 47.3103L51.4689 60.0718H46.4359L47.5544 58.9622L43.0804 49.5294L30.7769 51.1943L26.304 60.0718H21.271L22.9485 57.2974L26.304 45.6454L24.067 43.4263L19.033 44.5359L18.4735 48.9746L20.151 50.6395L21.8295 48.9746ZM29.6964 55.5278L31.3674 52.1199L33.5952 51.5521L35.2661 60.0718H29.6964L30.8104 59.504L29.6964 55.5278ZM40.4307 51.6699L42.1017 50.5498L44.8866 55.3108L44.3296 60.0718H39.3168L40.4307 58.3914V51.6699Z" fill="black"/>
</svg>
