<svg width="221" height="92" viewBox="0 0 221 92" fill="none" xmlns="http://www.w3.org/2000/svg">
<rect x="0.243164" y="0.00012207" width="220" height="92" rx="16" fill="white"/>
<path d="M47.9471 26.496C47.4139 26.4195 47.3885 26.394 47.6424 26.3686C48.1249 26.2921 49.2422 26.3941 50.0294 26.5724C51.8578 27.0055 53.5084 28.1266 55.2606 30.0884L55.7176 30.6234L56.3779 30.5215C59.1966 30.0629 62.0915 30.4196 64.5039 31.5406C65.1641 31.8464 66.2053 32.4579 66.3322 32.6107C66.383 32.6617 66.4592 32.9929 66.51 33.3241C66.6878 34.5216 66.6116 35.4133 66.2307 36.1012C66.0275 36.4834 66.0275 36.5853 66.1545 36.9165C66.2561 37.1713 66.5608 37.3497 66.8401 37.3497C67.4496 37.3497 68.0844 36.3815 68.3891 35.0311L68.5161 34.4961L68.7447 34.7509C70.0397 36.2031 71.0555 38.2159 71.2079 39.6427L71.2586 40.0249L71.0301 39.6936C70.6492 39.1077 70.2937 38.7255 69.8112 38.3943C68.9478 37.8083 68.0336 37.6299 65.6212 37.5025C63.4374 37.3751 62.1931 37.1968 60.9742 36.7891C58.8919 36.1012 57.8253 35.2095 55.3621 31.9228C54.2702 30.4706 53.5846 29.6807 52.8989 29.0183C51.4007 27.566 49.9025 26.8017 47.9471 26.496Z" fill="#FF007A"/>
<path d="M66.8662 29.732C66.917 28.7639 67.0439 28.1269 67.3233 27.5409C67.4248 27.3116 67.5264 27.1078 67.5518 27.1078C67.5772 27.1078 67.5264 27.2861 67.4502 27.49C67.2471 28.0505 67.2217 28.8403 67.3486 29.732C67.5264 30.8786 67.6026 31.0314 68.8215 32.2799C69.3801 32.8659 70.0404 33.6047 70.2943 33.9105L70.726 34.471L70.2943 34.0633C69.7611 33.5538 68.5422 32.5856 68.2628 32.4582C68.0851 32.3563 68.0597 32.3563 67.9327 32.4837C67.8311 32.5856 67.8057 32.7385 67.8057 33.4773C67.7803 34.6238 67.628 35.3372 67.2471 36.0761C67.0439 36.4583 67.0185 36.3818 67.1963 35.9487C67.3233 35.6175 67.3486 35.4646 67.3486 34.3691C67.3486 32.1525 67.0947 31.6174 65.5457 30.7257C65.1648 30.4964 64.5045 30.1652 64.1236 29.9868C63.7173 29.8085 63.4126 29.6556 63.438 29.6556C63.4888 29.6046 64.987 30.0378 65.5711 30.2926C66.4599 30.6493 66.6122 30.6747 66.7138 30.6493C66.79 30.5728 66.8408 30.369 66.8662 29.732Z" fill="#FF007A"/>
<path d="M48.9891 33.5284C47.9226 32.0507 47.2369 29.7576 47.3893 28.0506L47.4401 27.5156L47.694 27.5665C48.1511 27.643 48.9383 27.9487 49.3192 28.178C50.335 28.7895 50.7921 29.6303 51.2238 31.7195C51.3507 32.3309 51.5285 33.0443 51.6047 33.2736C51.7316 33.6558 52.2141 34.5475 52.6204 35.1081C52.8998 35.5157 52.722 35.7195 52.0871 35.6686C51.1222 35.5667 49.8271 34.6749 48.9891 33.5284Z" fill="#FF007A"/>
<path d="M65.5712 44.6107C60.5432 42.5725 58.7656 40.8145 58.7656 37.8335C58.7656 37.4004 58.791 37.0437 58.791 37.0437C58.8164 37.0437 58.9942 37.1966 59.2227 37.3749C60.2385 38.1902 61.3812 38.5469 64.5554 39.0055C66.4092 39.2858 67.4757 39.4896 68.4407 39.8208C71.5133 40.8399 73.4178 42.9292 73.8749 45.7572C74.0019 46.5725 73.9257 48.1267 73.7226 48.942C73.5448 49.579 73.0369 50.7509 72.91 50.7764C72.8846 50.7764 72.8338 50.649 72.8338 50.4452C72.783 49.3751 72.2497 48.356 71.3609 47.5662C70.2944 46.649 68.9231 45.9611 65.5712 44.6107Z" fill="#FF007A"/>
<path d="M62.0154 45.4519C61.9646 45.0697 61.8376 44.5856 61.7615 44.3818L61.6345 43.9996L61.863 44.2799C62.1932 44.6621 62.4471 45.1207 62.6756 45.7576C62.8534 46.2417 62.8534 46.3946 62.8534 47.1844C62.8534 47.9487 62.828 48.1271 62.6756 48.5602C62.4217 49.2481 62.117 49.7322 61.6091 50.2673C60.6949 51.2099 59.5014 51.7195 57.8 51.9488C57.4953 51.9743 56.6319 52.0507 55.8701 52.1017C53.9656 52.2036 52.6959 52.4074 51.5532 52.8151C51.4008 52.866 51.2484 52.917 51.223 52.8915C51.1723 52.8406 51.9595 52.3819 52.5943 52.0762C53.4831 51.6431 54.3973 51.4138 56.4034 51.0571C57.3937 50.9042 58.4095 50.7004 58.6634 50.5985C61.1774 49.8087 62.4217 47.8468 62.0154 45.4519Z" fill="#FF007A"/>
<path d="M64.3264 49.5536C63.6661 48.1014 63.5137 46.7256 63.8693 45.4262C63.92 45.2988 63.9708 45.1714 64.0216 45.1714C64.0724 45.1714 64.2248 45.2478 64.3771 45.3497C64.6819 45.5536 65.3167 45.9103 66.9419 46.802C68.9988 47.923 70.1669 48.7893 70.9795 49.7829C71.6905 50.6492 72.1222 51.6428 72.3254 52.8658C72.4524 53.5537 72.3762 55.2098 72.1984 55.8977C71.6398 58.0633 70.3701 59.7958 68.5163 60.7895C68.237 60.9424 68.0084 61.0443 67.9831 61.0443C67.9577 61.0443 68.0592 60.7895 68.2116 60.4838C68.8211 59.1844 68.8972 57.9359 68.4401 56.5346C68.1608 55.6684 67.5768 54.6238 66.4086 52.8658C65.012 50.8275 64.6819 50.2925 64.3264 49.5536Z" fill="#FF007A"/>
<path d="M45.4083 57.3507C47.2874 55.771 49.5982 54.65 51.7313 54.2933C52.6455 54.1404 54.1691 54.1914 55.0071 54.4207C56.353 54.7774 57.5719 55.5417 58.2067 56.4844C58.8162 57.4017 59.0955 58.1915 59.3749 59.9495C59.4764 60.6374 59.6034 61.3508 59.6288 61.5036C59.8319 62.4208 60.2382 63.1342 60.7461 63.5164C61.5333 64.1024 62.9046 64.1279 64.2505 63.6183C64.479 63.5419 64.6822 63.4655 64.6822 63.4909C64.7329 63.5419 64.0473 64.0005 63.5902 64.2298C62.9554 64.561 62.4475 64.6629 61.7619 64.6629C60.543 64.6629 59.5018 64.026 58.6638 62.7521C58.4861 62.4973 58.1306 61.7584 57.8258 61.0705C56.937 59.0068 56.48 58.3953 55.4388 57.7074C54.5246 57.1214 53.3565 56.994 52.4677 57.4271C51.2996 57.9876 50.9949 59.4909 51.8075 60.4081C52.1376 60.7902 52.7471 61.096 53.2549 61.1724C54.1945 61.2998 55.0071 60.5609 55.0071 59.6183C55.0071 59.0068 54.7786 58.6501 54.1691 58.3698C53.3565 58.0131 52.4677 58.4208 52.4931 59.2106C52.4931 59.5418 52.6455 59.7456 52.9756 59.8985C53.1788 60.0004 53.1788 60.0004 53.0264 59.9749C52.29 59.8221 52.1122 58.9049 52.6963 58.3189C53.4073 57.6055 54.9055 57.9112 55.4134 58.9049C55.6166 59.3125 55.642 60.1278 55.4642 60.6374C55.0325 61.7584 53.8136 62.3444 52.5693 62.0132C51.7313 61.7839 51.3758 61.5546 50.3601 60.51C48.5825 58.6756 47.8969 58.3189 45.3575 57.9367L44.875 57.8603L45.4083 57.3507Z" fill="#FF007A"/>
<path fill-rule="evenodd" clip-rule="evenodd" d="M32.051 16.3561C37.9678 23.5664 47.0842 34.7768 47.5413 35.3883C47.9222 35.8979 47.7698 36.382 47.135 36.7386C46.7794 36.9425 46.043 37.1463 45.6875 37.1463C45.2812 37.1463 44.7987 36.9425 44.4686 36.6113C44.2401 36.382 43.2497 34.9297 41.015 31.4392C39.3137 28.764 37.8662 26.5474 37.8408 26.5219C37.7393 26.4709 37.7393 26.4709 40.8373 32.0252C42.7926 35.5157 43.4275 36.7641 43.4275 36.917C43.4275 37.2482 43.3259 37.4266 42.9196 37.8852C42.234 38.6495 41.9292 39.5158 41.7007 41.3247C41.4467 43.3375 40.7611 44.7643 38.8058 47.1847C37.6631 48.6115 37.4853 48.8662 37.206 49.4522C36.8505 50.1656 36.7489 50.5733 36.6981 51.4905C36.6473 52.4587 36.7489 53.0701 37.0282 53.9874C37.2822 54.8027 37.5615 55.3377 38.2471 56.3823C38.8312 57.2995 39.1867 57.9874 39.1867 58.2422C39.1867 58.446 39.2375 58.446 40.1517 58.2422C42.3355 57.7326 44.1385 56.8664 45.1288 55.7963C45.7383 55.1339 45.8907 54.7772 45.8907 53.86C45.8907 53.274 45.8653 53.1466 45.7129 52.7899C45.459 52.2294 44.9765 51.7708 43.9353 51.0574C42.5641 50.1147 41.98 49.3503 41.8277 48.3312C41.7007 47.4649 41.853 46.879 42.6149 45.2738C43.4021 43.6177 43.6052 42.9298 43.7322 41.2483C43.8084 40.1782 43.9353 39.7451 44.2401 39.4139C44.5702 39.0572 44.8495 38.9298 45.6367 38.8279C46.9318 38.6495 47.7698 38.3183 48.43 37.6813C49.0141 37.1463 49.268 36.6113 49.2934 35.8214L49.3188 35.2354L48.9887 34.8787C47.7952 33.5029 31.2638 15.2606 31.1877 15.2606C31.1623 15.2606 31.5686 15.7446 32.051 16.3561ZM39.8469 52.5861C40.1263 52.102 39.9739 51.4905 39.5168 51.1848C39.0851 50.9045 38.4249 51.0319 38.4249 51.4141C38.4249 51.516 38.4757 51.6179 38.628 51.6688C38.8566 51.7962 38.882 51.9236 38.7042 52.2039C38.5265 52.4841 38.5265 52.7389 38.755 52.9173C39.1105 53.1975 39.593 53.0447 39.8469 52.5861Z" fill="#FF007A"/>
<path fill-rule="evenodd" clip-rule="evenodd" d="M50.131 39.184C49.5216 39.3623 48.9375 40.0248 48.7598 40.6872C48.6582 41.0948 48.709 41.8337 48.8867 42.063C49.1661 42.4197 49.42 42.5216 50.131 42.5216C51.5277 42.5216 52.7212 41.9101 52.8482 41.1713C52.9751 40.5598 52.4419 39.719 51.7055 39.3369C51.3246 39.133 50.5373 39.0566 50.131 39.184ZM51.7562 40.4579C51.9594 40.1522 51.8832 39.8209 51.5023 39.5916C50.8167 39.1585 49.7755 39.5152 49.7755 40.1776C49.7755 40.5088 50.3088 40.8655 50.8167 40.8655C51.1468 40.8655 51.6039 40.6617 51.7562 40.4579Z" fill="#FF007A"/>
<path d="M87.957 35.3225V47.8293C87.957 49.2985 88.2324 50.5198 88.7834 51.4932C89.6007 52.9624 90.9781 53.697 92.9156 53.697C95.2388 53.697 96.8183 52.9027 97.6539 51.3141C98.1038 50.4509 98.3288 49.2893 98.3288 47.8293V35.3225H101.111V46.686C101.111 49.1745 100.776 51.0891 100.106 52.4298C98.8752 54.8724 96.552 56.0937 93.136 56.0937C89.72 56.0937 87.4014 54.8724 86.1801 52.4298C85.5098 51.0891 85.1746 49.1745 85.1746 46.686V35.3225H87.957ZM105.037 40.8045H107.392V42.8982C108.09 42.035 108.829 41.4152 109.61 41.0387C110.39 40.6622 111.258 40.4739 112.213 40.4739C114.307 40.4739 115.721 41.204 116.455 42.664C116.859 43.4629 117.062 44.6062 117.062 46.0938V55.5565H114.541V46.259C114.541 45.3591 114.408 44.6337 114.141 44.0827C113.701 43.1645 112.902 42.7053 111.745 42.7053C111.157 42.7053 110.675 42.765 110.298 42.8844C109.619 43.0864 109.022 43.4905 108.508 44.0965C108.095 44.5832 107.824 45.0882 107.695 45.6117C107.576 46.1259 107.516 46.8651 107.516 47.8293V55.5565H105.037V40.8045ZM120.739 40.8734H123.26V55.5565H120.739V40.8734ZM120.739 35.3225H123.26V38.1324H120.739V35.3225ZM128.494 50.9284C128.567 51.7549 128.774 52.3885 129.114 52.8293C129.738 53.6282 130.822 54.0276 132.364 54.0276C133.283 54.0276 134.091 53.8302 134.789 53.4353C135.487 53.0313 135.836 52.4114 135.836 51.5758C135.836 50.9422 135.555 50.4601 134.995 50.1295C134.637 49.9275 133.93 49.6934 132.874 49.4271L130.904 48.9312C129.646 48.619 128.719 48.2701 128.122 47.8844C127.057 47.214 126.524 46.2866 126.524 45.102C126.524 43.7063 127.025 42.5768 128.026 41.7136C129.036 40.8504 130.39 40.4188 132.089 40.4188C134.311 40.4188 135.914 41.0708 136.896 42.3748C137.511 43.2012 137.81 44.0919 137.791 45.0469H135.45C135.404 44.4868 135.207 43.9771 134.858 43.518C134.288 42.866 133.301 42.54 131.896 42.54C130.96 42.54 130.248 42.7191 129.761 43.0772C129.284 43.4354 129.045 43.9083 129.045 44.496C129.045 45.1388 129.362 45.653 129.995 46.0387C130.363 46.2682 130.904 46.4702 131.621 46.6447L133.26 47.0442C135.041 47.4757 136.235 47.8936 136.841 48.2976C137.805 48.9312 138.287 49.9275 138.287 51.2866C138.287 52.5997 137.787 53.7338 136.786 54.6888C135.794 55.6438 134.279 56.1213 132.24 56.1213C130.046 56.1213 128.489 55.6254 127.571 54.6337C126.662 53.6327 126.175 52.3977 126.111 50.9284H128.494ZM142.268 40.8045L145.105 52.4298L147.984 40.8045H150.767L153.659 52.3609L156.676 40.8045H159.155L154.871 55.5565H152.296L149.293 44.1378L146.386 55.5565H143.811L139.555 40.8045H142.268ZM163.411 51.6309C163.411 52.3472 163.673 52.9119 164.196 53.3251C164.72 53.7383 165.34 53.945 166.056 53.945C166.928 53.945 167.773 53.7429 168.59 53.3389C169.968 52.6686 170.656 51.5712 170.656 50.0469V48.0497C170.353 48.2425 169.963 48.4032 169.486 48.5318C169.008 48.6603 168.54 48.7521 168.081 48.8072L166.579 49.0001C165.679 49.1194 165.004 49.3077 164.554 49.5648C163.792 49.9964 163.411 50.6851 163.411 51.6309ZM169.417 46.6172C169.986 46.5437 170.367 46.305 170.56 45.9009C170.67 45.6805 170.725 45.3637 170.725 44.9505C170.725 44.1057 170.422 43.495 169.816 43.1186C169.219 42.7329 168.361 42.54 167.24 42.54C165.946 42.54 165.027 42.889 164.486 43.5869C164.182 43.9725 163.985 44.5465 163.893 45.3086H161.579C161.625 43.4905 162.213 42.2278 163.342 41.5208C164.481 40.8045 165.799 40.4464 167.295 40.4464C169.031 40.4464 170.441 40.777 171.524 41.4381C172.598 42.0993 173.136 43.1277 173.136 44.5235V53.0221C173.136 53.2792 173.186 53.4858 173.287 53.6419C173.397 53.798 173.622 53.8761 173.962 53.8761C174.072 53.8761 174.196 53.8715 174.334 53.8623C174.472 53.8439 174.619 53.821 174.775 53.7934V55.6254C174.389 55.7356 174.095 55.8045 173.893 55.832C173.691 55.8595 173.416 55.8733 173.067 55.8733C172.213 55.8733 171.593 55.5703 171.207 54.9642C171.005 54.6428 170.863 54.1883 170.78 53.6006C170.275 54.2618 169.55 54.8357 168.604 55.3224C167.658 55.809 166.616 56.0524 165.477 56.0524C164.109 56.0524 162.989 55.6392 162.116 54.8127C161.253 53.9771 160.822 52.9349 160.822 51.686C160.822 50.3178 161.249 49.2572 162.103 48.5042C162.957 47.7512 164.077 47.2875 165.463 47.113L169.417 46.6172ZM183.439 53.8899C184.596 53.8899 185.555 53.4078 186.317 52.4436C187.089 51.4702 187.474 50.0194 187.474 48.091C187.474 46.9156 187.305 45.9055 186.965 45.0607C186.322 43.4354 185.147 42.6227 183.439 42.6227C181.721 42.6227 180.546 43.4813 179.912 45.1984C179.573 46.1167 179.403 47.2829 179.403 48.697C179.403 49.8357 179.573 50.8045 179.912 51.6034C180.555 53.1277 181.731 53.8899 183.439 53.8899ZM177.02 40.8734H179.43V42.8293C179.926 42.159 180.468 41.6401 181.056 41.2728C181.891 40.7219 182.874 40.4464 184.003 40.4464C185.675 40.4464 187.093 41.0892 188.26 42.3748C189.426 43.6512 190.009 45.4785 190.009 47.8568C190.009 51.0708 189.169 53.3664 187.488 54.7439C186.423 55.6162 185.183 56.0524 183.769 56.0524C182.658 56.0524 181.726 55.809 180.973 55.3224C180.532 55.0469 180.041 54.574 179.499 53.9036V61.438H177.02V40.8734Z" fill="#FF007A"/>
</svg>
